<svg enable-background="new 0 0 450 237" viewBox="0 0 450 237" xmlns="http://www.w3.org/2000/svg" xmlns:xlink="http://www.w3.org/1999/xlink"><linearGradient id="a"><stop offset="0" stop-color="#07abb6"/><stop offset="1" stop-color="#005c64"/></linearGradient><linearGradient id="b" gradientUnits="userSpaceOnUse" x1="98.6205" x2="214.709" xlink:href="#a" y1="46.4456" y2="162.5341"/><linearGradient id="c" gradientUnits="userSpaceOnUse" x1="118.1031" x2="234.1917" xlink:href="#a" y1="26.9629" y2="143.0515"/><linearGradient id="d" gradientUnits="userSpaceOnUse" x1="77.484" x2="193.5726" xlink:href="#a" y1="67.582" y2="183.6705"/><linearGradient id="e" gradientUnits="userSpaceOnUse" x1="50.7675" x2="166.856" xlink:href="#a" y1="94.2986" y2="210.3871"/><linearGradient id="f" gradientUnits="userSpaceOnUse" x1="49.0026" x2="165.0911" xlink:href="#a" y1="96.0635" y2="212.152"/><linearGradient id="g" gradientUnits="userSpaceOnUse" x1="25.1792" x2="141.2677" xlink:href="#a" y1="119.8869" y2="235.9754"/><path d="m97.5 28.8c0-7.7-6.3-14-14-14s-14 6.3-14 14 6.3 14 14 14c1.5 0 2.9-.3 4.3-.7l13.9 29.7c1-.6 2-1.1 3.1-1.6l-13.9-29.6c4-2.4 6.6-6.8 6.6-11.8z" fill="url(#b)"/><path d="m146.9 59.4c7.7 0 14-6.3 14-14s-6.3-14-14-14-14 6.3-14 14c0 5 2.6 9.3 6.5 11.8l-7.4 13.9c1 .5 2 1.1 3 1.7l7.5-14.2c1.4.5 2.9.8 4.4.8z" fill="url(#c)"/><path d="m194.8 170.9c-3.1 0-5.9 1-8.2 2.7l-44.9-48.4c-.8.8-1.6 1.7-2.5 2.4l44.9 48.3c-2 2.4-3.3 5.5-3.3 9 0 7.7 6.3 14 14 14s14-6.3 14-14-6.2-14-14-14z" fill="url(#d)"/><path d="m121.5 158.5-.9-22.6c-1 .1-2.1.2-3.2.2-.1 0-.2 0-.3 0l.9 22.5c-6.6 1.1-11.7 6.8-11.7 13.8 0 7.7 6.3 14 14 14s14-6.3 14-14c0-7.3-5.6-13.3-12.8-13.9z" fill="url(#e)"/><path d="m84.3 103.5c0-.4-.1-.8-.1-1.2 0-.7.1-1.5.1-2.2h-27.2c-.9-6.9-6.7-12.3-13.8-12.3-7.7 0-14 6.3-14 14s6.3 14 14 14c7.1 0 13-5.4 13.8-12.3z" fill="url(#f)"/><path d="m101.5 131.8-29.9 63.2c-1.4-.5-2.8-.8-4.4-.8-7.7 0-14 6.3-14 14s6.3 14 14 14 14-6.3 14-14c0-5-2.6-9.3-6.5-11.8l29.9-63.1c-1-.4-2.1-1-3.1-1.5z" fill="url(#g)"/><g fill="#333331"><path d="m206.1 134.5-38.7-57.4h-.2v57.4h-6.5v-65.2h8.8l36.4 54.1h.2v-54.1h6.5v65.2z"/><path d="m271.3 134.5-38.7-57.4h-.2v57.4h-6.5v-65.2h8.8l36.4 54.1h.2v-54.1h6.5v65.2z"/><path d="m290.7 134.5v-65.2h35.7v5.9h-29.2v23.4h28.2v5.9h-28.2v24.1h29.2v5.9z"/><path d="m399.7 117.4c-6.3 11.4-17.7 18.2-30.1 18.2-18.6 0-34.1-14.7-34.1-33.7 0-19.1 15.2-33.8 34-33.8 12.1 0 24.7 7 29.9 17.8h-7.3c-5-7.5-13.8-11.9-22.7-11.9-14.5 0-27.4 12.9-27.4 27.9 0 14.6 12.9 27.7 27.5 27.7 8.9 0 16.9-4.5 22.8-12.3h7.4z"/><path d="m418.9 134.5v-59.3h-15v-5.9h36.4v5.9h-14.9v59.3z"/><path d="m117.5 67.5c-18.1 0-33.3 15.5-33.3 34.8 0 18.2 15.2 33.8 33.3 33.8 18 0 33.5-15.3 33.5-34.3 0-18.3-14.9-34.3-33.5-34.3zm0 62.7c-15 0-27.5-12.9-27.5-28 0-15.9 12.6-28.7 27.5-28.7 15.4 0 27.7 13.2 27.7 28.4.1 15.6-12.8 28.3-27.7 28.3z"/><path d="m65.9 117.5c-5.1 7.6-13.6 12.6-23 12.6-15 0-27.5-12.9-27.5-28 0-15.8 12.6-28.7 27.6-28.7 9.5 0 17.9 5.1 22.9 12.6h6.7c-5.6-10.8-16.8-18.5-29.7-18.5-18.1 0-33.2 15.5-33.2 34.8 0 18.2 15.2 33.8 33.3 33.8 12.6 0 24-7.5 29.7-18.5h-6.8z"/></g></svg>