<svg viewBox="0 0 35 35" xmlns="http://www.w3.org/2000/svg"><g fill="none" stroke="#08848f" stroke-linecap="round" stroke-linejoin="round"><path d="m33.1954524 17.5526888c-.178623.1819492-.4231032.2841181-.6780817.2833596h-3.0528241c-.3691856-.0009254-.7048736-.2142369-.8625-.5480779l-1.3173712-2.8074981c-.0682694-.145793-.2145934-.2390528-.3755726-.2393638-.1605999-.000091-.3069087.0923154-.3758305.2373764-.4889149 1.0292935-1.7647783 3.7130078-1.8336394 3.8546857-.0831976.1605885-.0530529.356533.0745653.4846936l2.2258697 2.2258621c.2344825.2332688.3658783.5506531.3648922.8813955v6.5234871c0 .6882994-.5579731 1.2462877-1.2462801 1.2462877h-.0096943c-.6882311-.0134339-1.2382243-.5768231-1.2351142-1.2651679v-5.8148434c-.0000303-.1102854-.0438289-.2160498-.1217926-.2940513l-2.4229709-2.4227244c-.0779333-.0780546-.1837356-.1218798-.2940438-.1217963h-.0096943c-.1138581.0025373-.2216782.0516875-.2982765.1359622l-2.2514707 2.4734296c-.2363637.2592264-.5708609.4070827-.9216668.4073937h-5.8245377c-.6881704.0000228-1.2460525-.557829-1.2460753-1.2459994 0-.0032466.0000152-.0064856.0000379-.0097322.0127815-.6897254.5778319-1.2409323 1.2676636-1.2365934h5.0686592c.117044-.0000872.2286493-.0494384.3074701-.1359622l.3402773-.3728418c.9002909-.9892725 3.8705925-7.0479513 4.2064019-7.7357197.100447-.2065338.0144428-.4553908-.1920797-.555834-.0661758-.0321814-.1397095-.0462297-.2130763-.0407113l-2.2619007.1707607c-.0882647.0068118-.1720388.0416481-.2391097.099423l-2.6973834 2.3086349c-.399884.3422305-1.0014889.2954888-1.3437232-.104399-.3422268-.399884-.295485-1.0014889.104399-1.3437194l3.0379186-2.5997013c.1534164-.131904.3450713-.2111761.5468376-.2261916l4.9162744-.3745713h.0022301c1.0638491-.0862508 2.8808308.349725 3.4008158 1.5599702q.0034742.0084502 2.222881 4.7400636c.0685121.1460396.2152609.2393183.3765738.2393638h2.1624853c.5261596-.0037131.9586536.4140879.9731116.9400578.0043844.2554905-.0946669.5019088-.2746553.6832929z"/><path d="m28.278427 5.0324204c1.2004789-.0000006 2.1736663.9731829 2.1736663 2.1736663s-.9731874 2.1736682-2.1736663 2.1736687-2.1736663-.9731829-2.1736663-2.1736663v-.0000012c.0013654-1.1999152.9737639-2.1722971 2.1736663-2.1736675z"/><path d="m4.29077 10.008377h5.015468"/><path d="m10.470996 10.008377h3.587981"/><path d="m1.529753 13.363453h2.880575"/><path d="m5.957373 13.363453h6.16556"/><path d="m6.813418 16.718528h2.280052"/><path d="m10.582102 16.718528h4.256362"/><path d="m12.612351 27.362906h2.576833"/><path d="m17.017849 27.362906h5.543909"/><path d="m16.142913 29.96758h6.418844"/></g></svg>