<svg viewBox="0 0 35 35" xmlns="http://www.w3.org/2000/svg"><g fill="none" stroke="#6e2594" stroke-linecap="round" stroke-linejoin="round"><path d="m14.6662167 25.5328929c-1.4296896.4840813-2.9811081-.282488-3.4651882-1.7121788-.0000277-.0000771-.0000542-.0001591-.0000819-.000241l-1.1403476-3.3676596c-.0386543-.1142638.0225578-.2382449.1367782-.2770317l4.7635607-1.6125968c.114265-.0386519.2382449.0225578.2770317.1367782l1.1403488 3.3679777c.4839331 1.4295993-.2825663 2.980837-1.7121017 3.464952z"/><path d="m13.7769972 16.5361359-3.7906324 1.2831291c-.291834.09766-.6131441-.0082447-.7897151-.2602905-.6317721-.9015388-1.8555146-3.2561528-2.4850754-6.3913214-.8222512-4.0954625-.2902991-8.6969741 3.634269-10.0255908 3.924568-1.3286167 5.43324 5.2152787 4.7897799 9.0078066-.6434601 3.7925285-.6106079 3.6175273-.6106079 3.6175273l-.2842973 2.2007777c-.0335704.2622812-.2134566.4826039-.4637208.567962z"/><path d="m20.3354217 33.8880871c1.4297728.4839222 2.9811455-.2827145 3.4652702-1.712415l1.1403488-3.3679729c.0386567-.1142638-.022553-.2382449-.1367782-.2770365l-4.7638752-1.6129101c-.1143554-.0386278-.238375.0227506-.2770317.1370915l-1.1403488 3.3679729c-.483927 1.429768.2827097 2.9811455 1.712415 3.4652702z"/><path d="m21.2233764 24.8913265 3.7906324 1.2831279c.291834.0976588.6131426-.0082471.7897151-.2602917.6317721-.90154 1.8555123-3.2561528 2.4850768-6.3913226.8213056-4.0957794.2903013-8.6969735-3.6326894-10.025593-3.9229906-1.3286195-5.4332388 5.2152766-4.7897781 9.0078081s.6106073 3.6175255.6106073 3.6175255l.2842955 2.2007765c.0332245.2619209.212448.4821822.4621405.5679692z"/></g></svg>