<svg viewBox="0 0 35 35" xmlns="http://www.w3.org/2000/svg"><g fill="none" stroke="#08848f" stroke-linecap="round" stroke-linejoin="round"><path d="m14.7078376 19.8541237s.0125988-9.4638459-3.4476396-9.427907c-2.5963284.0269661-5.825322 4.7517982-7.4500717 9.9882514-1.9217618 6.1937022-.7167628 10.7532942 1.0303291 11.0506715 1.8625179.3170243 2.6154507-1.5454936 3.6457798-1.5454936s5.1516453 1.5818155 5.6668098-1.5058656c.5727507-3.4328283.5944206-5.9045781.5547926-8.5596568z"/><path d="m16.3720374 3.4985384v9.5645595s.1482436 1.2942655-.9050677 2.5893203-1.2087178 1.4849962-1.2087178 1.4849962l-4.9212082 3.2770538-2.2274943.54932"/><path d="m5.9871686 24.4760582 2.3138312-1.174183 1.0360438-2.887407"/><path d="m8.8535565 16.3085793h1.7785419l1.1914504 2.2965638"/><path d="m10.580296 14.495503.051802 1.813076"/><path d="m12.3596798 26.1801152v-1.704057l-1.113618-1.7759216"/><path d="m20.2921624 19.8541237s-.0125988-9.4638459 3.4476396-9.427907c2.5963284.0269661 5.825322 4.7517982 7.4500717 9.9882514 1.9217618 6.1937022.7167628 10.7532942-1.0303291 11.0506715-1.8625179.3170243-2.6154507-1.5454936-3.6457798-1.5454936s-5.1516453 1.5818155-5.6668098-1.5058656c-.5727507-3.4328283-.5944206-5.9045781-.5547926-8.5596568z"/><path d="m18.6279626 3.4985384v9.5645595s-.1482436 1.2942655.9050677 2.5893203 1.2087178 1.4849962 1.2087178 1.4849962l4.9212082 3.2770538 2.2274943.54932"/><path d="m29.0128314 24.4760582-2.3138312-1.174183-1.0360438-2.887407"/><path d="m26.1464435 16.3085793h-1.7785419l-1.1914504 2.2965638"/><path d="m24.419704 14.495503-.051802 1.813076"/><path d="m25.0478292 25.7646152-1.293891-3.0644787-4.596718-4.0949934s-.8852938-.8081725-1.5322393-.8081725h-.2499617c-.6469455 0-1.5322393.8081725-1.5322393.8081725l-4.596718 4.0949934-1.293891 3.0644787"/><path d="m22.6403202 26.1801152v-1.704057l1.113618-1.7759216"/></g></svg>