<svg viewBox="0 0 35 35" xmlns="http://www.w3.org/2000/svg"><g fill="none" stroke="#6e2594" stroke-linecap="round" stroke-linejoin="round"><path d="m5.37 23.33c1.47-2.61 4.23-3.78 6.87-3.59"/><circle cx="7.05" cy="14.12" r="1.45"/><path d="m17.5 26.96c-.14.09-.28.17-.43.25"/><path d="m15.28 28.01c-1.14.39-2.36.61-3.63.61-6.14 0-11.12-4.98-11.12-11.12s4.98-11.12 11.12-11.12c1.62 0 3.16.35 4.55.97" stroke-dasharray=".98 1.97"/><path d="m17.07 7.79c.15.08.29.17.43.25"/><circle cx="7.05" cy="14.12" r="1.45"/><circle cx="23.35" cy="17.5" r="11.12"/><path d="m30.61 18.95c0 3.52-3.25 6.77-7.25 6.77s-7.25-3.25-7.25-6.77"/><path d="m17.07 15.57c0-2.56 3.87-2.56 3.87 0"/><path d="m29.64 15.57c0-2.56-3.87-2.56-3.87 0"/></g></svg>