<svg viewBox="0 0 35 35" xmlns="http://www.w3.org/2000/svg"><g fill="none" stroke="#08848f" stroke-linecap="round" stroke-linejoin="round"><rect height="5.85" rx="1.62" width="3.67" x="9.02" y="14.58"/><rect height="6.85" rx="1.62" width="3.67" x="12.69" y="13.58"/><path d="m9.38 19.68s-.52 3.99 1.83 8.9v2.96"/><path d="m18.26 16.21-2.91-9.09c-.31-.97.22-2 1.19-2.31.97-.31 2 .22 2.31 1.19l3.06 9.56"/><path d="m19.22 7.15.73-2.4c.3-.97 1.32-1.52 2.29-1.22.97.3 1.52 1.32 1.22 2.29l-2.28 7.46"/><path d="m16.37 16.48.96-3.17"/><path d="m25.96 17.62s.19 4.02-.59 5.38-4.23 5.63-4.23 5.63v2.93"/><path d="m17.7 24.88s.12-4.02 4.56-5.19h-2.49c-1.14 0-2.06-.92-2.06-2.06 0-1.14.92-2.06 2.06-2.06h4.14c1.14 0 2.06.92 2.06 2.06"/></g></svg>