<svg viewBox="0 0 35 35" xmlns="http://www.w3.org/2000/svg"><g fill="none" stroke="#08848f" stroke-linecap="round" stroke-linejoin="round"><path d="m14.71 19.85s.01-9.46-3.45-9.43c-2.6.03-5.83 4.75-7.45 9.99-1.92 6.19-.72 10.75 1.03 11.05 1.86.32 2.62-1.55 3.65-1.55s5.15 1.58 5.67-1.51c.57-3.43.59-5.9.55-8.56z"/><path d="m16.37 3.5v9.56s.15 1.29-.91 2.59-1.21 1.48-1.21 1.48l-4.92 3.28-2.23.55"/><path d="m5.99 24.48 2.31-1.17 1.04-2.89"/><path d="m8.85 16.31h1.78l1.19 2.3"/><path d="m10.58 14.5.05 1.81"/><path d="m12.36 26.18v-1.7l-1.11-1.78"/><path d="m20.29 19.85s-.01-9.46 3.45-9.43c2.6.03 5.83 4.75 7.45 9.99 1.92 6.19.72 10.75-1.03 11.05-1.86.32-2.62-1.55-3.65-1.55s-5.15 1.58-5.67-1.51c-.57-3.43-.59-5.9-.55-8.56z"/><path d="m18.63 3.5v9.56s-.15 1.29.91 2.59 1.21 1.48 1.21 1.48l4.92 3.28 2.23.55"/><path d="m29.01 24.48-2.31-1.17-1.04-2.89"/><path d="m26.15 16.31h-1.78l-1.19 2.3"/><path d="m24.42 14.5-.05 1.81"/><path d="m25.05 25.76-1.29-3.06-4.6-4.09s-.89-.81-1.53-.81h-.25c-.65 0-1.53.81-1.53.81l-4.6 4.09-1.29 3.06"/><path d="m22.64 26.18v-1.7l1.11-1.78"/></g></svg>