<svg viewBox="0 0 35 35" xmlns="http://www.w3.org/2000/svg"><g fill="none" stroke="#6e2594" stroke-linecap="round" stroke-linejoin="round"><path d="m12.41 27.5c.66 1.56 2.2 2.65 3.99 2.65 2.39 0 4.33-1.94 4.33-4.33 0 0-.34-3.41 1.13-4.89s2.73-3.82 2.73-3.82c.69-1.2 1.08-2.59 1.08-4.07 0-4.52-3.66-8.18-8.18-8.18s-8.18 3.66-8.18 8.18"/><path d="m16.72 24.5c-.73 0-1.32.59-1.32 1.32s.59 1.32 1.32 1.32 1.32-.59 1.32-1.32-.59-1.32-1.32-1.32z"/><path d="m12.25 13.6c0-2.47 2-4.47 4.47-4.47s4.47 2 4.47 4.47-2 4.47-4.47 4.47v4.47"/></g></svg>