<svg viewBox="0 0 35 35" xmlns="http://www.w3.org/2000/svg"><g fill="none" stroke="#6e2594" stroke-linecap="round" stroke-linejoin="round"><path d="m14.67 25.53c-1.43.48-2.98-.28-3.47-1.71l-1.14-3.37c-.04-.11.02-.24.14-.28l4.76-1.61c.11-.04.24.02.28.14l1.14 3.37c.48 1.43-.28 2.98-1.71 3.46z"/><path d="m13.78 16.54-3.79 1.28c-.29.1-.61 0-.79-.26-.63-.9-1.86-3.26-2.49-6.39-.82-4.1-.29-8.7 3.63-10.03s5.43 5.22 4.79 9.01-.61 3.62-.61 3.62l-.28 2.2c-.03.26-.21.48-.46.57z"/><path d="m20.34 33.89c1.43.48 2.98-.28 3.47-1.71l1.14-3.37c.04-.11-.02-.24-.14-.28l-4.76-1.61c-.11-.04-.24.02-.28.14l-1.14 3.37c-.48 1.43.28 2.98 1.71 3.47z"/><path d="m21.22 24.89 3.79 1.28c.29.1.61 0 .79-.26.63-.9 1.86-3.26 2.49-6.39.82-4.1.29-8.7-3.63-10.03s-5.43 5.22-4.79 9.01.61 3.62.61 3.62l.28 2.2c.03.26.21.48.46.57z"/></g></svg>