<svg viewBox="0 0 35 35" xmlns="http://www.w3.org/2000/svg"><g fill="none" stroke="#08848f" stroke-linecap="round" stroke-linejoin="round"><path d="m33.2 17.55c-.18.18-.42.28-.68.28h-3.05c-.37 0-.7-.21-.86-.55l-1.32-2.81c-.07-.15-.21-.24-.38-.24-.16 0-.31.09-.38.24-.49 1.03-1.76 3.71-1.83 3.85-.08.16-.05.36.07.48l2.23 2.23c.23.23.37.55.36.88v6.52c0 .69-.56 1.25-1.25 1.25-.69-.01-1.24-.58-1.24-1.27v-5.81c0-.11-.04-.22-.12-.29l-2.42-2.42c-.08-.08-.18-.12-.29-.12-.11 0-.22.05-.3.14l-2.25 2.47c-.24.26-.57.41-.92.41h-5.82c-.69 0-1.25-.56-1.25-1.25.01-.69.58-1.24 1.27-1.24h5.07c.12 0 .23-.05.31-.14l.34-.37c.9-.99 3.87-7.05 4.21-7.74.1-.21.01-.46-.19-.56-.07-.03-.14-.05-.21-.04l-2.26.17c-.09 0-.17.04-.24.1l-2.7 2.31c-.4.34-1 .3-1.34-.1s-.3-1 .1-1.34l3.04-2.6c.15-.13.35-.21.55-.23l4.92-.37c1.06-.09 2.88.35 3.4 1.56 0 0 .74 1.59 2.22 4.74.07.15.22.24.38.24h2.16c.53 0 .96.41.97.94 0 .26-.09.5-.27.68z"/><path d="m28.28 5.03c1.2 0 2.17.97 2.17 2.17s-.97 2.17-2.17 2.17-2.17-.97-2.17-2.17c0-1.2.97-2.17 2.17-2.17z"/><path d="m4.29 10.01h5.02"/><path d="m10.47 10.01h3.59"/><path d="m1.53 13.36h2.88"/><path d="m5.96 13.36h6.17"/><path d="m6.81 16.72h2.28"/><path d="m10.58 16.72h4.26"/><path d="m12.61 27.36h2.58"/><path d="m17.02 27.36h5.54"/><path d="m16.14 29.97h6.42"/></g></svg>