<svg viewBox="0 0 35 35" xmlns="http://www.w3.org/2000/svg"><g fill="none" stroke="#08848f" stroke-linecap="round" stroke-linejoin="round"><path d="m17.5 12.19v5.31h5.31s-1.14.94-1.14 2.28c0 1.26 1.02 2.28 2.28 2.28s2.28-1.02 2.28-2.28c0-1.34-1.14-2.28-1.14-2.28h5.31v-9.87c0-1.67-1.36-3.03-3.03-3.03h-9.87v5.31"/><path d="m12.19 17.5h5.31v-5.31s.94 1.14 2.28 1.14c1.26 0 2.28-1.02 2.28-2.28s-1.02-2.28-2.28-2.28c-1.34 0-2.28 1.14-2.28 1.14v-5.31h-9.87c-1.67 0-3.03 1.36-3.03 3.03v9.87h5.31"/><path d="m17.5 22.81v-5.31h-5.31s1.14-.94 1.14-2.28c0-1.26-1.02-2.28-2.28-2.28s-2.28 1.02-2.28 2.28c0 1.34 1.14 2.28 1.14 2.28h-5.31v9.87c0 1.67 1.36 3.03 3.03 3.03h9.87v-5.31"/><path d="m22.81 17.5h-5.31v5.31s-.94-1.14-2.28-1.14c-1.26 0-2.28 1.02-2.28 2.28s1.02 2.28 2.28 2.28c1.34 0 2.28-1.14 2.28-1.14v5.31h9.87c1.67 0 3.03-1.36 3.03-3.03v-9.87h-5.31"/></g></svg>