<svg viewBox="0 0 35 35" xmlns="http://www.w3.org/2000/svg"><g fill="none" stroke="#08848f" stroke-linecap="round" stroke-linejoin="round"><circle cx="17.5" cy="17.5" r="12.65"/><path d="m10.26 15.84c-.23-.54-.36-1.13-.36-1.76 0-2 1.62-3.61 3.61-3.61 1.6 0 2.89 1.29 2.89 2.89 0 1.28-1.03 2.31-2.31 2.31-1.02 0-1.85-.83-1.85-1.85 0-.82.66-1.48 1.48-1.48"/><path d="m19.06 15.84c-.23-.54-.36-1.13-.36-1.76 0-2 1.62-3.61 3.61-3.61 1.6 0 2.89 1.29 2.89 2.89 0 1.28-1.03 2.31-2.31 2.31-1.02 0-1.85-.83-1.85-1.85 0-.82.66-1.48 1.48-1.48"/><path d="m11.4 22.83 1.76-2.58 2.18 3.3 2.23-3.3 2.19 3.3 2.22-3.3 1.73 2.58"/><path d="m4.51 3.15v4.58"/><path d="m2.23 5.44h4.57"/><path d="m32.02 6.36v4.57"/><path d="m29.73 8.64h4.57"/><path d="m28.67 27.86v4.58"/><path d="m26.39 30.15h4.57"/></g></svg>