<svg viewBox="0 0 35 35" xmlns="http://www.w3.org/2000/svg"><g fill="none" stroke="#6e2594" stroke-linecap="round" stroke-linejoin="round"><path d="m30.18 16.88c-.76-.52-1.79-.32-2.31.44-1.03 1.51-2.88 3.89-3.77 4.44-.94.58-2.65 1.26-4.34 1.26h-4.51c-1.69 0-3.39-.68-4.34-1.26-.89-.55-2.74-2.93-3.77-4.44-.52-.76-1.55-.95-2.31-.44-.76.52-.95 1.55-.44 2.31.48.71 2.97 4.28 4.78 5.39.51.32 2.06 1.18 4.11 1.57v5.42c0 .72.58 1.3 1.3 1.3h5.85c.72 0 1.3-.58 1.3-1.3v-5.42c2.05-.39 3.6-1.25 4.11-1.57 1.8-1.11 4.29-4.69 4.78-5.39.52-.76.32-1.79-.44-2.31z"/><circle cx="17.5" cy="17.76" r="3.99"/><path d="m20.23 5.62h-2.46l1.28-3.5h-2.4l-1.88 5.14h2.4l-.88 4.82z"/><path d="m11.44 5.63-2.02 1.42-.96-3.6-1.96 1.38 1.4 5.29 1.97-1.38 2.05 4.45z"/><path d="m28.52 8.3-2.33-.78 2.32-2.91-2.27-.76-3.42 4.27 2.27.76-2.37 4.29z"/></g></svg>