<svg viewBox="0 0 35 35" xmlns="http://www.w3.org/2000/svg"><g fill="none" stroke="#08848f" stroke-linecap="round" stroke-linejoin="round"><path d="m21.07 13.91c0-5.03-4.75-7.91-9.06-7.91-5.36 0-9.5 4.2-9.5 9.56 0 3.04 1 5.9 4 7.68v5.76h10v-3.48c2 .01 3.02-.13 3.72-.84.9-.9.81-4.69.81-4.69s.85.03 1.5 0c.22 0 .45-.12.58-.31.13-.18.09-.41.1-.63.12-1.61-2.15-4.36-2.15-5.16z"/><path d="m16.51 29h4.63v-3.48c2 .01 3.02-.13 3.72-.84.9-.9.81-4.69.81-4.69s.85.03 1.5 0c.22 0 .45-.12.58-.31.13-.18.09-.41.1-.63.12-1.61-2.15-4.36-2.15-5.16 0-5.03-4.75-7.91-9.06-7.91-.8 0-1.57.09-2.31.27"/><path d="m21.14 29h4.63v-3.48c2 .01 3.02-.13 3.72-.84.9-.9.81-4.69.81-4.69s.85.03 1.5 0c.22 0 .45-.12.58-.31.13-.18.09-.41.1-.63.12-1.61-2.15-4.36-2.15-5.16 0-5.03-4.75-7.91-9.06-7.91-.8 0-1.57.09-2.31.27"/></g></svg>